<?xml version="1.0" encoding="utf-8"?>
<!-- Generator: Adobe Illustrator 18.1.1, SVG Export Plug-In . SVG Version: 6.00 Build 0)  -->
<svg version="1.1" id="Layer_1" xmlns="http://www.w3.org/2000/svg" xmlns:xlink="http://www.w3.org/1999/xlink" x="0px" y="0px"
	 viewBox="0 0 612 626" enable-background="new 0 0 612 626" xml:space="preserve">
<g>
	<polygon fill="#7F0000" points="465.7,314.7 465.9,314.4 354,202.5 332.8,223.6 413.1,304 122.4,304 122.4,333.9 414.1,333.9 
		337.6,410.5 358.7,431.6 470.7,319.7 	"/>
	<path fill="#7F0000" d="M305,20.1c-160.7,0-291,130.3-291,291s130.3,291,291,291s291-130.3,291-291S465.7,20.1,305,20.1z
		 M302.1,569.8C159.6,569.8,44,454.2,44,311.6S159.6,53.4,302.1,53.4S560.3,169,560.3,311.6S444.7,569.8,302.1,569.8z"/>
</g>
</svg>
