<?xml version="1.0" standalone="no"?>
<!DOCTYPE svg PUBLIC "-//W3C//DTD SVG 20010904//EN"
 "http://www.w3.org/TR/2001/REC-SVG-20010904/DTD/svg10.dtd">
<svg version="1.0" xmlns="http://www.w3.org/2000/svg"
 width="132.000000pt" height="132.000000pt" viewBox="0 0 132.000000 132.000000"
 preserveAspectRatio="xMidYMid meet">
<metadata>
Created by potrace 1.11, written by Peter Selinger 2001-2013
</metadata>
<g transform="translate(0.000000,132.000000) scale(0.100000,-0.100000)"
fill="#ffffff" stroke="none">
<path d="M5 1140 c-1 -3 -3 -69 -3 -147 l0 -143 310 0 309 0 -31 38 c-51 60
-194 235 -201 245 -7 9 -379 16 -384 7z"/>
<path d="M701 843 c0 -5 51 -69 113 -143 l112 -135 191 -3 191 -2 0 145 0 145
-304 0 c-167 0 -304 -3 -303 -7z"/>
<path d="M2 626 c0 -72 1 -138 4 -146 3 -13 45 -15 304 -15 165 0 300 2 300 5
0 3 -52 69 -115 146 l-114 141 -190 0 -189 0 0 -131z"/>
<path d="M705 459 c-2 -3 48 -69 111 -146 l115 -141 188 -1 189 -1 0 145 c0
80 -3 146 -6 146 -24 5 -594 3 -597 -2z"/>
</g>
</svg>
