<?xml version="1.0" encoding="utf-8"?>
<!-- Generator: Adobe Illustrator 21.0.0, SVG Export Plug-In . SVG Version: 6.00 Build 0)  -->
<svg version="1.1" id="Layer_1" xmlns="http://www.w3.org/2000/svg" xmlns:xlink="http://www.w3.org/1999/xlink" x="0px" y="0px"
	 viewBox="0 0 30 30" style="enable-background:new 0 0 30 30;" xml:space="preserve">
<g>
	<g>
		<path d="M13.4,21.5c0.1,0,0.2,0,0.3,0c2.2,0,4.5,0,6.7,0c0.9,0,1.6,0.5,1.8,1.3c0.2,0.7,0,1.3-0.6,1.8c-0.6,0.5-1.2,0.6-1.9,0.2
			c-0.7-0.3-1-0.9-1-1.6c0-0.3,0.1-0.6,0.1-0.9c-2.8,0-5.7,0-8.5,0c0.1,0.3,0.1,0.6,0.2,0.9c0,0.9-0.7,1.7-1.6,1.8
			c-0.9,0.1-1.8-0.6-1.9-1.4c-0.2-1,0.4-1.9,1.3-2.1c0.2,0,0.3-0.1,0.5,0c0.3,0.1,0.5-0.1,0.6-0.2c0.5-0.6,0.9-1.2,0.8-2
			c0-0.4-0.2-0.8-0.3-1.2c-1.1-3.5-2.3-7-3.5-10.5C6.4,7.4,6.3,7.3,6.1,7.3C5.4,7.2,4.8,7.1,4.2,7C3.9,7,3.7,6.8,3.7,6.5
			c0-0.2,0-0.4,0-0.7c0-0.3,0.2-0.4,0.5-0.4c0.7,0.1,1.4,0.2,2.1,0.3c0.3,0,0.4,0.2,0.5,0.4c0.2,0.7,0.5,1.4,0.8,2.1
			c0.1,0.2,0.1,0.2,0.3,0.2c1.5,0.1,3.1,0.2,4.6,0.3C13.8,8.8,15,8.9,16.3,9c1.5,0.1,3,0.2,4.5,0.3c1,0.1,2,0.1,3,0.2
			c0.6,0,1.2,0.1,1.9,0.1c0.4,0,0.6,0.3,0.5,0.7c-0.4,1.4-0.8,2.8-1.2,4.2c-0.3,1.1-0.7,2.3-1,3.4c-0.1,0.4-0.2,0.5-0.6,0.5
			c-1.4,0.1-2.8,0.2-4.1,0.4c-1.2,0.1-2.4,0.2-3.6,0.3c-0.1,0-0.3,0-0.4,0c-0.1,0-0.1,0.1-0.2,0.1C14.6,20,14,20.8,13.4,21.5z
			 M11.6,9.5c0,0.1,0,0.1,0,0.2c0.1,0.6,0.3,1.3,0.4,1.9c0.1,0.4,0.1,0.4,0.5,0.4c0.6,0,1.3,0,1.9,0c0.1,0,0.3,0,0.4,0
			c0-0.1,0-0.1,0-0.2c-0.1-0.6-0.2-1.3-0.2-1.9c0-0.2-0.1-0.2-0.3-0.3c-0.7,0-1.3-0.1-2-0.1C12.1,9.6,11.8,9.6,11.6,9.5z M15.5,9.8
			c0.1,0.7,0.2,1.4,0.3,2.1c0,0.1,0.1,0.1,0.2,0.1c0.8,0,1.6,0,2.4,0.1c0.1,0,0.2,0,0.2-0.2c0-0.6,0.1-1.1,0.1-1.7
			c0-0.1,0-0.2-0.2-0.2c-0.7,0-1.5-0.1-2.2-0.1C16,9.8,15.7,9.8,15.5,9.8z M8,9.3c0.3,0.9,0.6,1.7,0.8,2.5c0,0,0.1,0.1,0.2,0.1
			c0.7,0,1.4,0,2.2,0c0,0,0,0,0,0c-0.2-0.8-0.4-1.5-0.5-2.3c0-0.1-0.1-0.1-0.2-0.2c-0.3,0-0.5-0.1-0.8-0.1C9.1,9.4,8.6,9.3,8,9.3z
			 M15.2,15.3c0-0.1,0-0.1,0-0.1c-0.1-0.7-0.2-1.4-0.2-2c0-0.2-0.1-0.2-0.2-0.2c-0.5,0-1,0-1.5,0c-0.3,0-0.6,0-0.9,0
			c0.2,0.8,0.4,1.5,0.5,2.3c0,0.1,0.1,0.1,0.2,0.1c0.4,0,0.7,0,1.1,0C14.5,15.3,14.8,15.3,15.2,15.3z M11.9,15.4c0-0.1,0-0.1,0-0.2
			c-0.2-0.7-0.3-1.4-0.5-2.1c0-0.2-0.1-0.2-0.3-0.2c-0.5,0-1,0-1.5,0c-0.1,0-0.3,0-0.4,0c0,0.1,0,0.1,0,0.1c0.3,0.8,0.5,1.6,0.8,2.4
			c0,0.1,0.1,0.1,0.1,0.1C10.7,15.4,11.3,15.4,11.9,15.4z M16.1,15.2c0.8,0,1.5-0.1,2.3-0.1c0-0.7,0.1-1.4,0.1-2.1
			c-0.9,0-1.8,0-2.6,0C15.9,13.7,16,14.5,16.1,15.2z M19.4,12.2c0.7,0,1.3,0,2,0c0.6,0,0.6,0,0.7-0.6c0.1-0.4,0.2-0.9,0.2-1.3
			c-0.9-0.1-1.9-0.1-2.8-0.2C19.5,10.8,19.4,11.4,19.4,12.2z M11.2,19.5c0,0.8-0.3,1.4-0.8,2c0.4,0,0.7,0,1,0c0.3,0,0.6-0.1,0.8-0.3
			c0.7-0.5,1.2-1.2,1.7-2c0,0,0,0,0-0.1C13,19.3,12.1,19.4,11.2,19.5z M19.3,15.1c0.8,0,1.5-0.1,2.2-0.1c0.1-0.7,0.2-1.3,0.3-1.9
			c-0.8,0-1.6,0-2.4,0C19.3,13.7,19.3,14.4,19.3,15.1z M15.6,18.2c-0.1-0.7-0.1-1.3-0.2-1.9c0-0.1-0.1-0.1-0.2-0.1
			c-0.6,0-1.1,0-1.7,0.1c-0.1,0-0.2,0-0.3,0c0,0.1,0,0.1,0,0.1c0.1,0.5,0.2,1,0.4,1.6c0.1,0.4,0.1,0.4,0.5,0.4
			C14.5,18.3,15,18.2,15.6,18.2z M12.7,18.4c-0.2-0.7-0.3-1.4-0.5-2c0,0-0.1-0.1-0.1-0.1c-0.6,0-1.1,0-1.7,0.1c0,0,0,0.1,0,0.1
			c0.2,0.7,0.4,1.4,0.7,2c0,0,0.1,0.1,0.2,0.1C11.6,18.5,12.1,18.5,12.7,18.4z M18.3,16c-0.7,0-1.3,0.1-2,0.1
			c0.1,0.7,0.1,1.3,0.2,1.9c0,0,0.1,0.1,0.2,0.1c0.5,0,1-0.1,1.5-0.1c0.1,0,0.2-0.1,0.2-0.1C18.3,17.3,18.3,16.7,18.3,16z M19.2,16
			c0,0.6,0,1.2-0.1,1.9c0.6,0,1.1-0.1,1.6-0.1c0.1,0,0.2-0.1,0.2-0.2c0.1-0.4,0.2-0.8,0.2-1.2c0-0.1,0-0.3,0.1-0.4
			C20.6,15.9,19.9,16,19.2,16z M22.9,12.2c0.4,0,0.8,0,1.2,0c0.5,0,0.5,0,0.6-0.5c0.1-0.4,0.2-0.8,0.4-1.3c-0.6,0-1.2-0.1-1.8-0.1
			c-0.1,0-0.1,0.1-0.2,0.1c-0.1,0.4-0.1,0.7-0.2,1.1C22.9,11.8,22.9,12,22.9,12.2z M24.3,13.1c-0.4,0-0.8,0-1.2,0
			c-0.5,0-0.5,0-0.6,0.5c-0.1,0.5-0.2,0.9-0.2,1.4c0.5,0,0.9,0,1.3,0c0,0,0.1-0.1,0.1-0.1C24,14.3,24.2,13.7,24.3,13.1z M9.6,23.3
			c0-0.5-0.4-0.9-0.9-0.9c-0.5,0-0.9,0.4-0.9,0.9c0,0.5,0.4,0.9,0.9,0.9C9.2,24.2,9.6,23.8,9.6,23.3z M20.5,24.2
			c0.5,0,0.9-0.4,0.9-0.9c0-0.5-0.4-0.9-0.9-0.9c-0.5,0-0.9,0.4-0.9,0.9C19.6,23.8,20,24.2,20.5,24.2z M23.5,15.9
			c-0.3,0-0.5,0-0.7,0c-0.7,0-0.7,0-0.8,0.7c-0.1,0.4-0.1,0.7-0.2,1.1c0.3,0,0.6-0.1,0.8-0.1c0.3,0,0.4-0.1,0.5-0.4
			C23.3,16.8,23.4,16.3,23.5,15.9z"/>
	</g>
</g>
</svg>
