<?xml version="1.0" encoding="utf-8"?>
<!-- Generator: Adobe Illustrator 21.0.0, SVG Export Plug-In . SVG Version: 6.00 Build 0)  -->
<svg version="1.1" id="Layer_1" xmlns="http://www.w3.org/2000/svg" xmlns:xlink="http://www.w3.org/1999/xlink" x="0px" y="0px"
	 viewBox="0 0 55 30" style="enable-background:new 0 0 55 30;" xml:space="preserve">
<style type="text/css">
	.st0{fill:#FFFFFF;}
</style>
<g>
	<rect x="5.7" y="18.4" width="24.5" height="2.5"/>
</g>
<g>
	<rect x="5.7" y="12.4" width="21" height="2.5"/>
</g>
<g>
	<rect x="5.7" y="6.4" width="23.2" height="2.5"/>
</g>
<g>
	<g>
		<path d="M39.5,20.5c-1.5,1-3.3,1.6-5.2,1.6c-5.1,0-9.2-4.1-9.2-9.2s4.1-9.2,9.2-9.2s9.2,4.1,9.2,9.2c0,1.9-0.5,3.6-1.6,5.2
			l5.8,5.8l-2.5,2.5L39.5,20.5z M34.3,7.1c-3.2,0-5.7,2.6-5.7,5.7s2.6,5.7,5.7,5.7c3.2,0,5.7-2.6,5.7-5.7S37.5,7.1,34.3,7.1z"/>
	</g>
	<g>
		<path class="st0" d="M34.3,4.1c4.8,0,8.7,3.9,8.7,8.7c0,2-0.7,3.8-1.7,5.2l5.8,5.8l-1.8,1.8l-5.8-5.8c-1.5,1.1-3.3,1.7-5.2,1.7
			c-4.8,0-8.7-3.9-8.7-8.7S29.5,4.1,34.3,4.1 M34.3,19.1c3.4,0,6.2-2.8,6.2-6.2s-2.8-6.2-6.2-6.2s-6.2,2.8-6.2,6.2
			S30.9,19.1,34.3,19.1 M34.3,3.1c-5.4,0-9.7,4.4-9.7,9.7c0,5.4,4.4,9.7,9.7,9.7c1.8,0,3.6-0.5,5.1-1.4l5.2,5.2l0.7,0.7l0.7-0.7
			l1.8-1.8l0.7-0.7l-0.7-0.7L42.6,18c1-1.5,1.4-3.3,1.4-5.1C44.1,7.5,39.7,3.1,34.3,3.1L34.3,3.1z M34.3,18.1
			c-2.9,0-5.2-2.3-5.2-5.2s2.3-5.2,5.2-5.2c2.9,0,5.2,2.3,5.2,5.2S37.2,18.1,34.3,18.1L34.3,18.1z"/>
	</g>
</g>
</svg>
