<?xml version="1.0" encoding="utf-8"?>
<!-- Generator: Adobe Illustrator 19.2.1, SVG Export Plug-In . SVG Version: 6.00 Build 0)  -->
<svg version="1.1" id="Layer_1" xmlns="http://www.w3.org/2000/svg" xmlns:xlink="http://www.w3.org/1999/xlink" x="0px" y="0px"
	 viewBox="0 0 520 108" style="enable-background:new 0 0 520 108;" xml:space="preserve">
<style type="text/css">
	.st0{fill:#ffffff;}
	.st1{fill:#ffffff;}
</style>
<path class="st0" d="M136.7,34H75.5l23.7,29h37.5V34z"/>
<path class="st0" d="M136.7,72.6H75.5l23.7,29h37.5V72.6z"/>
<path class="st0" d="M6.4,72.4h61.2l-23.7-29H6.4V72.4z"/>
<path class="st0" d="M6.4,33.9h61.2l-23.7-29H6.4V33.9z"/>
<path class="st1" d="M471.5,54.9c-2.2-3.9-7.1-6.3-12.3-6.3c-11.3-0.1-20.2,6.9-20.2,20.3c0,13.6,8.5,20.7,20,20.6
	c4.3-0.1,10.4-2.3,12.6-6.8l0.5,5.7h9V49.7h-9.2L471.5,54.9z M460,80.7c-6.4,0-11.5-4.4-11.5-11.8s5.1-11.7,11.5-11.7
	C475.1,57.2,475.1,80.7,460,80.7z"/>
<path class="st1" d="M512.4,49.1c-1.4-0.4-2.9-0.6-4.4-0.6c-3.9,0-7.9,0.7-10.9,5.5l-0.7-4.5h-8.9v38.7h9.6V67.8
	c0-7.1,4.6-9.8,9.7-9.8c2.5,0,4.1,0.5,5.6,1.6L512.4,49.1L512.4,49.1z"/>
<path class="st1" d="M415.7,48.4c-12.6,0-20.6,8.5-20.6,20.3c0,12.4,7.9,20.7,21.3,20.7c5.9,0,12.6-2,16.7-6.3l-6.1-6
	c-2.2,2.3-6.8,3.6-10.4,3.6c-6.8,0-10.9-3.5-11.6-8.2h30.3C436.7,56.4,428.6,48.4,415.7,48.4z M405.1,64.4c1.4-5,5.7-7.5,10.8-7.5
	c5.5,0,9.4,2.5,10.1,7.5H405.1z"/>
<path class="st1" d="M334.9,38.6c0,7.5,11.3,7.5,11.3,0S334.9,31.2,334.9,38.6z"/>
<path class="st1" d="M373.9,48.9c-4.9,0-8.8,2-12.7,5.8l-0.6-5.3H352v38.8h9.5V68.4c0-5.9,4-10.8,9.9-10.8c6.1,0,9.4,4.5,9.4,10.4
	v20.3h9.6V67.9C390.3,55.7,383,48.9,373.9,48.9z"/>
<rect x="335.7" y="49.4" class="st1" width="9.6" height="38.9"/>
<polygon class="st1" points="307.7,33.6 297.4,33.6 297.4,88.3 330.5,88.3 330.5,78.7 307.7,78.7 "/>
<path class="st1" d="M231.2,60.2c5.1-2.3,7.1-6.3,7.1-10.5c0-11-7.8-15.6-18.8-15.8c-8.6-0.2-12.6,0-21.1,0v54.5
	c8.6,0,12.5,0,21.1,0c11.3,0,20.4-3.9,20.4-16C239.9,68.9,237.6,62.2,231.2,60.2z M208.5,43.3h11c6.5,0,8.6,4.2,8.6,6.7
	c0,3.1-2.1,5.8-8.6,5.8h-11V43.3z M219.5,78.8h-11v-14h11c4.2,0,10.2,2.6,10.2,7.5C229.7,77.4,223.7,78.8,219.5,78.8z"/>
<path class="st1" d="M173.1,33.8c-8.6,0-12.4,0.1-21,0.1v54.5h10.3v-16h10.7C199.8,72.4,199.7,33.8,173.1,33.8z M173.1,62.9h-10.7
	V43.6h10.7C186.2,43.7,186.3,62.9,173.1,62.9z"/>
<path class="st1" d="M282.4,87.4c-3.3,1.2-6.8,1.9-10.5,1.9C256,89.3,243,76.7,243,61.2s12.9-28.1,28.9-28.1c3.7,0,7.2,0.7,10.5,1.9
	v10.9c-3-1.9-6.6-3.1-10.4-3.1c-10.4,0-18.9,8.2-18.9,18.4c0,10.2,8.5,18.4,18.9,18.4c3.9,0,7.6-1.2,10.6-3.1L282.4,87.4z"/>
<path class="st1" d="M512.3,84.5c0,2.7-2.2,4.9-4.9,4.9s-4.9-2.2-4.9-4.9c0-2.7,2.2-4.9,4.9-4.9S512.3,81.8,512.3,84.5z M511.3,84.5
	c0-2.2-1.7-3.9-3.9-3.9s-3.9,1.7-3.9,3.9c0,2.2,1.7,3.9,3.9,3.9S511.3,86.7,511.3,84.5z M508.3,85.2l1.5,2.1h-1.4l-1.4-2h-0.6v2
	h-1.2v-5.7h2.6c1.4,0,2,0.9,2,1.8C509.6,84.3,509.2,85,508.3,85.2L508.3,85.2z M507.3,84.3c0.6,0,1.1-0.1,1.1-0.9
	c0-0.7-0.5-0.8-1.1-0.8h-1v1.7L507.3,84.3L507.3,84.3z"/>
</svg>
