<?xml version="1.0" encoding="utf-8"?>
<!-- Generator: Adobe Illustrator 21.0.0, SVG Export Plug-In . SVG Version: 6.00 Build 0)  -->
<svg version="1.1" id="Layer_1" xmlns="http://www.w3.org/2000/svg" xmlns:xlink="http://www.w3.org/1999/xlink" x="0px" y="0px"
	 viewBox="0 0 30 30" style="enable-background:new 0 0 30 30;" xml:space="preserve">
<g>
	<path d="M17.2,7.4c2.5,0,5.1,0,7.6,0c0.3,0,0.3,0,0.3,0.3c0,1.9,0,3.8,0,5.7c0,0.3-0.2,0.6-0.5,0.7c-0.5,0.1-1,0.3-1.6,0.5
		c-0.4,0.1-0.9,0.2-1.3,0.4c-0.5,0.1-1,0.3-1.5,0.4c-0.5,0.1-1,0.3-1.6,0.5c-0.6,0.2-1.3,0.4-1.9,0.6c-0.5,0.2-1.1,0.3-1.6,0.4
		c-0.5,0.1-1,0.3-1.5,0.4c-0.4,0.1-0.8,0.2-1.3,0.4c-0.2,0.1-0.4,0.2-0.6,0.3c-0.1,0-0.2,0.2-0.1,0.2c0.1,0.1,0.2,0.2,0.3,0.2
		c0.3,0.1,0.6,0.1,0.9,0.1c4,0,8,0,12,0c0.3,0,0.3,0,0.3,0.3c0,0.4,0,0.8,0,1.3c0,0.4-0.2,0.6-0.6,0.6c-4.8,0-9.5,0-14.3,0
		c-0.4,0-0.6-0.2-0.6-0.6c0-0.4,0-0.7,0-1.1c0-0.4-0.1-0.8-0.2-1.2C9.3,17,9.2,16.4,9,15.8c-0.1-0.7-0.3-1.3-0.5-2
		c-0.1-0.5-0.2-1.1-0.3-1.6c-0.1-0.5-0.2-0.9-0.3-1.4C7.8,10.4,7.8,10,7.7,9.6C7.5,9,7.4,8.4,7.3,7.8c0-0.1-0.1-0.3-0.1-0.4
		c0-0.2-0.1-0.2-0.3-0.2c-0.5,0-1.1,0-1.6,0C5,7.2,5,7.2,5,6.9C5,6.5,5,6,5,5.6C5,5.2,5.2,5,5.6,5c1.1,0,2.2,0,3.2,0
		c0.4,0,0.5,0.2,0.5,0.5c0,0.5,0,1.1,0,1.6c0,0.2,0,0.2,0.2,0.2C12.1,7.4,14.6,7.4,17.2,7.4C17.2,7.4,17.2,7.4,17.2,7.4z"/>
	<path d="M12.8,22.8c0,1.3-1,2.2-2.2,2.2c-1.2,0-2.2-0.9-2.2-2.2c0-1.3,1-2.2,2.2-2.2C11.8,20.5,12.8,21.5,12.8,22.8z"/>
	<path d="M23.9,22.8c0,1.2-1,2.2-2.2,2.2c-1.2,0-2.2-0.9-2.2-2.2c0-1.3,1-2.2,2.2-2.2C22.9,20.5,23.9,21.5,23.9,22.8z"/>
</g>
</svg>
