<svg xmlns="http://www.w3.org/2000/svg" viewBox="0 0 1416.19 277.47"><defs><style>.a{fill:#231f20;}.b{fill:#d9272e;}</style></defs><title>PBC-Logo-FINAL</title><path class="a" d="M461.2,83.08c-24.58,0-32.72.22-57.3,0.22V239.7h29.49v-46H461.2c76.64,0,76.41-110.6,0-110.6m0,83.56H433.39V111.23H461.2c37.54,0,37.76,55.41,0,55.41"/><polygon class="b" points="358.72 83.54 190.53 83.54 258.7 166.73 358.72 166.73 358.72 83.54"/><polygon class="b" points="358.72 194.28 190.53 194.28 258.7 277.47 358.72 277.47 358.72 194.28"/><polygon class="b" points="0 193.93 168.14 193.93 99.96 110.74 0 110.74 0 193.93"/><polygon class="b" points="0 83.19 168.14 83.19 99.96 0 0 0 0 83.19"/><path class="a" d="M1300.07,143.48c-6.32-11.06-20.53-18-35.42-18-32.5-.23-58,19.85-58,58.21,0,39,24.37,59.34,57.31,59.12,12.41-.22,29.78-6.54,36.1-19.63l1.35,16.24h26V128.13H1301Zm-32.94,74c-18.28,0-32.95-12.64-32.95-33.85S1248.84,150,1267.12,150c43.32,0,43.32,67.47,0,67.47"/><path class="a" d="M1414.7,127a46.28,46.28,0,0,0-12.57-1.77c-11.28,0-22.79,2-31.37,15.8l-2-12.86h-25.5V239.38h27.53V180.71c0-20.53,13.31-28.2,27.75-28.2,7.06,0,11.77,1.54,16.19,4.47V127Z"/><path class="a" d="M1139.86,124.75c-36.1,0-59.12,24.37-59.12,58.22,0,35.65,22.79,59.34,61.15,59.34,16.92,0,36.1-5.87,47.84-18.05l-17.6-17.37c-6.32,6.54-19.63,10.38-29.78,10.38-19.41,0-31.36-9.93-33.17-23.69H1196c4.29-45.81-19-68.82-56.19-68.82m-30.24,46c4.06-14.44,16.25-21.66,31.14-21.66,15.8,0,27.08,7.22,28.88,21.66h-60Z"/><path class="a" d="M913.57,99.64c0,21.44,32.5,21.44,32.5,0s-32.5-21.44-32.5,0"/><path class="a" d="M1022.72,126.33c-14,0-25.27,5.64-36.55,16.7l-1.81-15.12H959.77V239.38h27.3V182.52c0-16.93,11.51-31.14,28.43-31.14,17.6,0,26.85,12.86,26.85,29.79v58.22h27.53V180.93c0-35-21-54.61-47.16-54.61"/><rect class="a" x="916.05" y="127.68" width="27.53" height="111.7"/><polygon class="a" points="835.63 82.28 805.84 82.28 805.84 239.38 900.98 239.38 900.98 211.85 835.63 211.85 835.63 82.28"/><path class="a" d="M617.66,158.82c14.52-6.48,20.33-18.1,20.33-30.17,0-31.5-22.52-44.8-53.85-45.36-24.8-.44-30.3,0-54.88,0v156.4h54.88c32.4,0,58.54-11.17,58.54-46,0-9.83-6.7-29.27-25-34.85m-59.34-48.71h25.83c18.77,0,24.58,12.06,24.58,19.22,0,8.94-6,16.76-24.58,16.76H558.31v-36Zm25.83,102.11H558.31V172h25.83c12.06,0,29.27,7.37,29.27,21.45,0,14.75-17.21,18.77-29.27,18.77"/><path class="a" d="M762.94,237a84.64,84.64,0,0,1-30.3,5.56c-45.79,0-82.9-36.15-82.9-80.74s37.12-80.74,82.9-80.74a84.64,84.64,0,0,1,30,5.46l0,31.24a55,55,0,0,0-30-8.79c-30,0-54.25,23.66-54.25,52.84s24.29,52.84,54.25,52.84a55,55,0,0,0,30.35-9Z"/><path class="a" d="M1393.69,239.81V228.07h-4.2v-2.39h11.23v2.39h-4.18v11.75h-2.85Z"/><path class="a" d="M1402.53,239.81V225.67h4.27l2.57,9.64,2.54-9.64h4.28v14.14h-2.65V228.68l-2.81,11.13H1408l-2.8-11.13v11.13h-2.65Z"/></svg>